<svg width="135" height="38" viewBox="0 0 135 38" fill="none" xmlns="http://www.w3.org/2000/svg">
<path fill-rule="evenodd" clip-rule="evenodd" d="M54.9389 0.788818V33.4367H60.9766V0.788818H54.9389ZM117.643 32.7753V26.5084L126.519 23.1414L117.643 19.7743V13.5075L134.937 19.9506H134.981V26.3938H134.937L117.643 32.8017V32.7841V32.7753ZM110.213 4.64036L100.041 37.2882H106.079L116.25 4.64036H110.213ZM17.3464 19.7481V13.4812L0.0352576 19.9156H0V26.3499H0.0352576L17.3464 32.7931V26.5174L8.47046 23.1327L17.3464 19.7569V19.7481ZM48.5667 19.5276C48.6637 16.9803 47.7646 14.4859 46.0459 12.5996L46.0547 12.6084C44.3271 10.8103 41.9208 9.83197 39.4264 9.93774C36.7557 9.82315 34.1643 10.8104 32.2428 12.679V10.6165H26.2051V33.4453H32.2428V23.3354C32.2428 18.0821 34.129 15.4643 37.9103 15.4643C39.1972 15.4114 40.4312 15.9491 41.2686 16.9274C42.15 18.0204 42.5995 19.413 42.529 20.8145V33.4364H48.5667V19.5276ZM88.1076 33.4364H93.1317L101.602 10.5635H95.1501L90.3993 24.2872L85.4986 10.5635H80.7918L75.8911 24.2432L71.1402 10.5635H64.6882L73.1499 33.4364H78.1828L83.1716 19.9947L88.1076 33.4364Z" fill="url(#paint0_linear_8132_92)"/>
<defs>
<linearGradient id="paint0_linear_8132_92" x1="131.614" y1="17.8849" x2="-0.947604" y2="18.0624" gradientUnits="userSpaceOnUse">
<stop stop-color="#859398"/>
<stop offset="0.39918" stop-color="#D1F593"/>
<stop offset="1" stop-color="#859398"/>
</linearGradient>
</defs>
</svg>
